<svg width="50" height="50" viewBox="0 0 50 50" fill="none" xmlns="http://www.w3.org/2000/svg">
<rect width="50" height="50" rx="4" fill="white"/>
<path d="M15.0078 39.1836V25.3164L7 19.1641V36.2539C7 38.207 7.97656 39.1836 9.92969 39.1836" fill="#4285F4"/>
<path d="M14.6172 25.2188L24.5781 32.7383L34.5391 25.2188V15.6484L24.5781 23.168L14.6172 15.6484" fill="#EA4335"/>
<path d="M34.1484 39.1836V25.3164L42.1562 19.1641V36.2539C42.1562 38.207 41.1797 39.1836 39.2266 39.1836" fill="#34A853"/>
<path d="M7 19.3591L15.0078 25.5115V15.9411L12.0781 13.695C9.44141 11.6443 7 13.695 7 16.2341" fill="#C5221F"/>
<path d="M42.1562 19.3591L34.1484 25.5115V15.9411L37.0781 13.695C39.7148 11.6443 42.1562 13.695 42.1562 16.2341" fill="#FBBC04"/>
</svg>
