<svg width="50" height="50" viewBox="0 0 50 50" fill="none" xmlns="http://www.w3.org/2000/svg">
<rect width="50" height="50" rx="4" fill="#2A639C"/>
<path d="M17.7653 18.3174H11.9307C11.6717 18.3174 11.4619 18.5273 11.4619 18.7862V37.5304C11.4619 37.7893 11.6717 37.9991 11.9307 37.9991H17.7653C18.0243 37.9991 18.2341 37.7893 18.2341 37.5304V18.7862C18.2341 18.5273 18.0243 18.3174 17.7653 18.3174Z" fill="white"/>
<path d="M14.8501 9C12.7272 9 11 10.7253 11 12.8459C11 14.9675 12.7272 16.6934 14.8501 16.6934C16.9714 16.6934 18.6972 14.9674 18.6972 12.8459C18.6973 10.7253 16.9714 9 14.8501 9Z" fill="white"/>
<path d="M32.6062 17.8525C30.2628 17.8525 28.5305 18.8599 27.4798 20.0046V18.7872C27.4798 18.5283 27.27 18.3184 27.0111 18.3184H21.4234C21.1644 18.3184 20.9546 18.5283 20.9546 18.7872V37.5314C20.9546 37.7903 21.1644 38.0002 21.4234 38.0002H27.2453C27.5042 38.0002 27.714 37.7903 27.714 37.5314V28.2573C27.714 25.1322 28.5629 23.9147 30.7414 23.9147C33.1139 23.9147 33.3025 25.8665 33.3025 28.4181V37.5315C33.3025 37.7904 33.5123 38.0002 33.7712 38.0002H39.5953C39.8542 38.0002 40.0641 37.7904 40.0641 37.5315V27.25C40.0641 22.603 39.178 17.8525 32.6062 17.8525Z" fill="white"/>
</svg>
