<svg width="83" height="30" viewBox="0 0 83 30" fill="none" xmlns="http://www.w3.org/2000/svg">
<path d="M23.7098 15.8465C22.778 15.4958 21.7363 15.9669 21.3855 16.8987C21.307 17.1081 21.1604 17.3751 20.951 17.663C20.6421 18.0975 20.1972 18.5582 19.7208 18.9665C19.2444 19.3749 18.7314 19.7308 18.3126 19.9664C17.14 20.626 15.8836 20.9401 14.6325 20.9401C14.0828 20.9401 13.5331 20.8773 12.9992 20.7621C12.0255 20.5475 11.0623 21.16 10.8424 22.1336C10.6278 23.1073 11.2402 24.0705 12.2139 24.2904C13.0044 24.4684 13.8158 24.5574 14.6325 24.5574C16.4856 24.5574 18.3702 24.0915 20.0925 23.1178C20.9562 22.6257 21.8724 21.9504 22.71 21.1285C23.1287 20.7202 23.5266 20.27 23.8773 19.7832C24.228 19.2963 24.5369 18.7676 24.762 18.1761C25.1128 17.239 24.6416 16.1973 23.7098 15.8465Z" fill="#FCA311"/>
<path d="M25.6894 12.6681C25.5795 11.0767 25.1136 9.47488 24.276 7.99863C23.5379 6.69514 22.5642 5.59055 21.4492 4.71635C20.3289 3.84734 19.062 3.20345 17.7271 2.81605C16.7691 2.53862 15.7693 3.08825 15.4918 4.04628C15.2144 5.00426 15.764 6.00413 16.7221 6.28156C17.6277 6.54329 18.481 6.97782 19.2348 7.56411C19.9886 8.15044 20.6378 8.88854 21.1403 9.77326C21.7109 10.7784 22.0145 11.8463 22.0931 12.9194C22.1611 13.9141 23.0249 14.6626 24.0195 14.5946C25.0089 14.5265 25.7575 13.6628 25.6894 12.6681Z" fill="#FCA311"/>
<path d="M12.822 6.20367C13.7905 5.96285 14.3768 4.98392 14.136 4.01547C13.8951 3.04702 12.9162 2.46068 11.9478 2.70151C10.995 2.93705 10.0579 3.30351 9.15756 3.8113C7.36199 4.82688 5.94854 6.28218 4.99056 7.95735C4.03258 9.63253 3.53003 11.5328 3.53003 13.4697C3.53003 13.5378 3.53003 13.6058 3.53003 13.6739V24.6567C3.53003 25.6513 4.3362 26.4627 5.33607 26.4627C6.33594 26.4627 7.14211 25.6566 7.14211 24.6567V13.4592C7.14211 13.454 7.14211 13.4436 7.14211 13.4383C7.14735 12.1453 7.48762 10.8679 8.12628 9.74769C8.77017 8.61695 9.71244 7.64326 10.9322 6.95225C11.5447 6.61197 12.1781 6.36596 12.822 6.20367Z" fill="#FCA311"/>
<path d="M34.7143 9.46C34.7667 9.3239 34.7928 9.17209 34.7928 9.02552V8.99933C34.7928 8.85276 34.7667 8.70095 34.7143 8.56481C34.662 8.42871 34.5782 8.29785 34.4787 8.19316L34.4735 8.18793L34.4683 8.18269C34.3635 8.07796 34.2327 7.98899 34.0966 7.93139C33.9552 7.87384 33.8034 7.84766 33.6569 7.84766H32.9606C32.2696 7.84766 31.6152 7.96805 31.0132 8.21411C30.4112 8.46013 29.8668 8.83182 29.3799 9.31866C28.9036 9.80551 28.5371 10.35 28.2911 10.9467C28.045 11.5435 27.9194 12.1978 27.9089 12.8889V20.1025C27.9089 20.2492 27.9351 20.401 27.9927 20.5371C28.0503 20.6732 28.1392 20.7988 28.244 20.9035C28.3487 21.0082 28.4743 21.0972 28.6104 21.1548C28.7465 21.2124 28.8983 21.2386 29.0449 21.2386H29.0816C29.2281 21.2386 29.3799 21.2124 29.516 21.1548C29.6521 21.0972 29.7778 21.0082 29.8825 20.9035C29.9872 20.7988 30.0762 20.6732 30.1338 20.5371C30.1914 20.401 30.2175 20.2492 30.2175 20.1025V12.8993C30.2228 12.5119 30.2908 12.1665 30.4217 11.8471C30.5526 11.5278 30.7515 11.2346 31.0185 10.9624C31.2907 10.6902 31.5838 10.4913 31.9031 10.3604C32.2225 10.2295 32.568 10.1615 32.9554 10.1615H33.6516C33.8034 10.1615 33.9552 10.1353 34.0913 10.0777C34.2327 10.0202 34.3584 9.93637 34.463 9.82645C34.573 9.72696 34.6567 9.60133 34.7143 9.46Z" fill="#15001E"/>
<path d="M45.5453 9.81074C44.8965 9.16162 44.1741 8.66954 43.378 8.33974C42.5823 8.00994 41.7241 7.84766 40.8078 7.84766C39.8918 7.84766 39.0279 8.00994 38.2375 8.33974C37.4419 8.66954 36.7194 9.16162 36.0703 9.81074C35.4211 10.4599 34.9291 11.1823 34.5993 11.978C34.2695 12.7737 34.1072 13.6322 34.1072 14.5483C34.1072 15.4645 34.2695 16.3282 34.5993 17.1187C34.9291 17.9144 35.4211 18.6368 36.0703 19.2859C36.7194 19.935 37.4419 20.4271 38.2375 20.7569C39.0332 21.0867 39.8918 21.249 40.8078 21.249C41.7241 21.249 42.5877 21.0867 43.378 20.7569C44.1741 20.4271 44.8965 19.935 45.5453 19.2859C46.1945 18.6368 46.6866 17.9144 47.0163 17.1187C47.3461 16.3229 47.5085 15.4645 47.5085 14.5483C47.5085 13.6322 47.3461 12.7685 47.0163 11.978C46.6813 11.1823 46.1892 10.4599 45.5453 9.81074ZM43.9016 17.684C43.4725 18.1185 43.0066 18.4379 42.4936 18.6525C41.9806 18.8671 41.4255 18.9718 40.8078 18.9718C40.1954 18.9718 39.6354 18.8619 39.1224 18.6525C38.6094 18.4379 38.1381 18.1185 37.7037 17.684C37.2741 17.2496 36.9551 16.7784 36.7456 16.2654C36.5362 15.7524 36.4261 15.1975 36.4261 14.5902C36.4261 13.9777 36.5308 13.4176 36.7456 12.9046C36.9551 12.3915 37.2741 11.9204 37.7037 11.4859C38.1381 11.0514 38.6094 10.7321 39.1224 10.5175C39.6354 10.3028 40.1954 10.1981 40.8078 10.1981C41.4255 10.1981 41.9855 10.3081 42.4936 10.5175C43.0066 10.7321 43.4725 11.0514 43.8963 11.4859C44.3307 11.9204 44.6502 12.3915 44.865 12.9098C45.0794 13.4228 45.1841 13.983 45.1841 14.5955C45.1841 15.2027 45.0745 15.7576 44.865 16.2706C44.6556 16.7732 44.3361 17.2443 43.9016 17.684Z" fill="#15001E"/>
<path d="M59.7259 9.81074C59.0766 9.16162 58.3542 8.66954 57.5585 8.33974C56.7629 8.00994 55.9042 7.84766 54.9883 7.84766C54.072 7.84766 53.2084 8.00994 52.4181 8.3345C51.6273 8.65906 50.9049 9.15114 50.261 9.79503C49.6118 10.4442 49.1201 11.1666 48.7899 11.9571C48.4602 12.7475 48.2929 13.6061 48.2876 14.5221V25.1281C48.2876 25.2747 48.3138 25.4265 48.3715 25.5626C48.4287 25.6987 48.5179 25.8243 48.6226 25.929C48.7274 26.0337 48.8529 26.1227 48.9892 26.1803C49.125 26.2379 49.2767 26.2641 49.4236 26.2641H49.46C49.6069 26.2641 49.7586 26.2379 49.8944 26.1803C50.0307 26.1227 50.1563 26.0337 50.261 25.929C50.3657 25.8243 50.4549 25.6987 50.5126 25.5626C50.5698 25.4265 50.596 25.2747 50.596 25.1281V19.5634C51.2035 20.0293 51.8106 20.4062 52.4283 20.6784C53.271 21.0553 54.1243 21.2438 54.9777 21.2438C55.894 21.2438 56.7576 21.0815 57.5479 20.7517C58.344 20.4219 59.0664 19.9298 59.7152 19.2807C60.3644 18.6315 60.8565 17.9092 61.1862 17.1135C61.516 16.3177 61.6784 15.4592 61.6784 14.5431C61.6784 13.627 61.516 12.7632 61.1862 11.9728C60.8672 11.1823 60.3751 10.4599 59.7259 9.81074ZM58.0822 17.6212C57.6526 18.0557 57.1867 18.3751 56.679 18.5897C56.166 18.8043 55.6113 18.909 54.9936 18.909C54.3808 18.909 53.8208 18.7991 53.3078 18.5897C52.7948 18.3751 52.3236 18.0557 51.8891 17.6212C51.46 17.1867 51.1405 16.7156 50.9311 16.2026C50.7216 15.6895 50.612 15.1347 50.612 14.5274C50.612 13.9149 50.7167 13.3548 50.9311 12.8418C51.1405 12.3287 51.46 11.8576 51.8891 11.4231C52.3236 10.9938 52.7948 10.6745 53.3078 10.4651C53.8208 10.2557 54.3808 10.1458 54.9936 10.1458C55.606 10.1458 56.166 10.2505 56.6737 10.4651C57.1867 10.6745 57.6526 10.9938 58.0875 11.4231C58.5219 11.8576 58.841 12.3287 59.0558 12.847C59.2706 13.36 59.3753 13.9201 59.3753 14.5326C59.3753 15.1399 59.2652 15.6948 59.0558 16.2078C58.841 16.7156 58.5219 17.1815 58.0822 17.6212Z" fill="#15001E"/>
<path d="M75.6508 16.034C75.614 15.9241 75.5616 15.8246 75.499 15.7304L75.4937 15.7251L75.4884 15.7199C75.3783 15.5733 75.2425 15.4476 75.0801 15.3639C74.9177 15.2801 74.7344 15.2435 74.5516 15.2435C74.4309 15.2435 74.3107 15.2592 74.1953 15.2906C74.0227 15.3377 73.8602 15.432 73.7293 15.5576C73.5989 15.6832 73.5097 15.8455 73.4467 16.0183C73.2949 16.458 73.0908 16.8454 72.8343 17.1961C72.5778 17.5469 72.2636 17.8557 71.8922 18.1279C71.5048 18.4106 71.0965 18.62 70.667 18.7613C70.2379 18.9027 69.7875 18.9708 69.3113 18.9708C68.5942 18.9708 67.9397 18.8032 67.3219 18.4682C66.8245 18.196 66.3537 17.8138 65.9033 17.3113C66.8982 16.8663 68.3794 16.2015 70.3426 15.3115C72.201 14.474 73.6983 13.7986 74.8392 13.2857H74.8445H74.8498C74.9807 13.2228 75.1063 13.139 75.2057 13.0291C75.3051 12.9244 75.3837 12.7936 75.436 12.6574V12.6522C75.4831 12.5266 75.5092 12.3905 75.5092 12.2544C75.5092 12.0921 75.4675 11.9246 75.3996 11.778V11.7728C75.1325 11.1917 74.7975 10.663 74.3945 10.1918C73.9912 9.72066 73.515 9.30713 72.9758 8.95115C72.426 8.58993 71.8398 8.31773 71.2274 8.1345C70.6146 7.95128 69.9761 7.8623 69.3113 7.8623C68.3949 7.8623 67.5314 8.02454 66.7411 8.35434C65.9454 8.68414 65.223 9.17626 64.5738 9.82539C63.9246 10.4745 63.4324 11.1969 63.1027 11.9926C62.773 12.7883 62.6106 13.6468 62.6106 14.563C62.6106 15.4791 62.773 16.3428 63.1027 17.1333C63.4324 17.929 63.9246 18.6514 64.5738 19.3006C65.223 19.9497 65.9454 20.4418 66.7411 20.7716C67.5367 21.1014 68.3949 21.2636 69.3113 21.2636C70.0231 21.2636 70.714 21.159 71.3686 20.9496C72.0231 20.7401 72.6457 20.4261 73.2323 20.0073C73.803 19.5989 74.2898 19.1226 74.6874 18.5834C75.0855 18.0494 75.4045 17.4474 75.6299 16.793V16.7878C75.677 16.6622 75.7032 16.5261 75.7032 16.39C75.7032 16.2539 75.6872 16.1387 75.6508 16.034ZM64.9558 15.0184C64.935 14.8299 64.9297 14.6834 64.9297 14.5839C64.9297 13.9714 65.0344 13.4113 65.2492 12.8983C65.4582 12.3852 65.7777 11.9141 66.2068 11.4796C66.6417 11.0451 67.1125 10.7258 67.6255 10.5111C68.1385 10.2965 68.6989 10.1918 69.3113 10.1918C69.9916 10.1918 70.6253 10.3488 71.2323 10.6682C71.7142 10.9195 72.1749 11.2755 72.6248 11.7414L64.9767 15.2016C64.9665 15.1336 64.9612 15.076 64.9558 15.0184Z" fill="#15001E"/>
<path d="M79.3365 3.53903C79.2788 3.39769 79.195 3.27202 79.0854 3.16734L79.08 3.1621L79.0747 3.15686C78.97 3.05742 78.8444 2.97364 78.7082 2.92127C78.5719 2.86896 78.4255 2.84277 78.279 2.84277H78.2422C78.0958 2.84277 77.9493 2.86896 77.8131 2.92127C77.6769 2.97364 77.5513 3.05742 77.4466 3.15686L77.4412 3.1621L77.4364 3.16734C77.3316 3.27202 77.2424 3.40293 77.1847 3.53903C77.1275 3.68036 77.1013 3.83217 77.1013 3.97874V20.1075C77.1013 20.2541 77.1275 20.4059 77.1847 20.542C77.2424 20.6781 77.3316 20.8037 77.4364 20.9084C77.5406 21.0132 77.6667 21.1021 77.8025 21.1597C77.9387 21.2173 78.0905 21.2435 78.2369 21.2435H78.2737C78.4202 21.2435 78.5719 21.2173 78.7082 21.1597C78.8444 21.1021 78.97 21.0132 79.0747 20.9084C79.1794 20.8037 79.2682 20.6781 79.3259 20.542C79.3836 20.4059 79.4097 20.2541 79.4097 20.1075V3.97874C79.4204 3.83217 79.3942 3.68036 79.3365 3.53903Z" fill="#15001E"/>
<mask id="mask0_2406_3230" style="mask-type:alpha" maskUnits="userSpaceOnUse" x="9" y="8" width="11" height="11">
<path d="M18.009 16.7516C19.7941 14.9717 19.7994 12.0768 18.0195 10.2864C16.2397 8.49611 13.3447 8.49611 11.5544 10.276C9.7693 12.0558 9.50753 16.9976 10.3975 17.8875C11.2822 18.7774 16.2187 18.5314 18.009 16.7516Z" fill="white"/>
</mask>
<g mask="url(#mask0_2406_3230)">
<path d="M22.1713 13.5197C22.1713 17.8092 18.6937 21.2865 14.4038 21.2865C10.1139 21.2865 6.63623 17.8092 6.63623 13.5197C6.63623 9.23023 10.1139 5.75293 14.4038 5.75293C18.6937 5.75293 22.1713 9.23023 22.1713 13.5197Z" fill="url(#paint0_linear_2406_3230)"/>
<path d="M22.1713 13.5197C22.1713 17.8092 18.6937 21.2865 14.4038 21.2865C10.1139 21.2865 6.63623 17.8092 6.63623 13.5197C6.63623 9.23023 10.1139 5.75293 14.4038 5.75293C18.6937 5.75293 22.1713 9.23023 22.1713 13.5197Z" fill="url(#paint1_radial_2406_3230)"/>
<path d="M22.1713 13.5197C22.1713 17.8092 18.6937 21.2865 14.4038 21.2865C10.1139 21.2865 6.63623 17.8092 6.63623 13.5197C6.63623 9.23023 10.1139 5.75293 14.4038 5.75293C18.6937 5.75293 22.1713 9.23023 22.1713 13.5197Z" fill="url(#paint2_radial_2406_3230)"/>
<path d="M22.1713 13.5197C22.1713 17.8092 18.6937 21.2865 14.4038 21.2865C10.1139 21.2865 6.63623 17.8092 6.63623 13.5197C6.63623 9.23023 10.1139 5.75293 14.4038 5.75293C18.6937 5.75293 22.1713 9.23023 22.1713 13.5197Z" fill="url(#paint3_radial_2406_3230)"/>
<path d="M22.1713 13.5197C22.1713 17.8092 18.6937 21.2865 14.4038 21.2865C10.1139 21.2865 6.63623 17.8092 6.63623 13.5197C6.63623 9.23023 10.1139 5.75293 14.4038 5.75293C18.6937 5.75293 22.1713 9.23023 22.1713 13.5197Z" fill="url(#paint4_radial_2406_3230)"/>
<path d="M22.1713 13.5197C22.1713 17.8092 18.6937 21.2865 14.4038 21.2865C10.1139 21.2865 6.63623 17.8092 6.63623 13.5197C6.63623 9.23023 10.1139 5.75293 14.4038 5.75293C18.6937 5.75293 22.1713 9.23023 22.1713 13.5197Z" fill="url(#paint5_radial_2406_3230)"/>
<g style="mix-blend-mode:soft-light" opacity="0.5">
<path d="M22.1713 13.5197C22.1713 17.8092 18.6937 21.2865 14.4038 21.2865C10.1139 21.2865 6.63623 17.8092 6.63623 13.5197C6.63623 9.23023 10.1139 5.75293 14.4038 5.75293C18.6937 5.75293 22.1713 9.23023 22.1713 13.5197Z" fill="url(#paint6_linear_2406_3230)"/>
<path d="M22.1713 13.5197C22.1713 17.8092 18.6937 21.2865 14.4038 21.2865C10.1139 21.2865 6.63623 17.8092 6.63623 13.5197C6.63623 9.23023 10.1139 5.75293 14.4038 5.75293C18.6937 5.75293 22.1713 9.23023 22.1713 13.5197Z" fill="url(#paint7_radial_2406_3230)"/>
<path d="M22.1713 13.5197C22.1713 17.8092 18.6937 21.2865 14.4038 21.2865C10.1139 21.2865 6.63623 17.8092 6.63623 13.5197C6.63623 9.23023 10.1139 5.75293 14.4038 5.75293C18.6937 5.75293 22.1713 9.23023 22.1713 13.5197Z" fill="url(#paint8_radial_2406_3230)"/>
<path d="M22.1713 13.5197C22.1713 17.8092 18.6937 21.2865 14.4038 21.2865C10.1139 21.2865 6.63623 17.8092 6.63623 13.5197C6.63623 9.23023 10.1139 5.75293 14.4038 5.75293C18.6937 5.75293 22.1713 9.23023 22.1713 13.5197Z" fill="url(#paint9_radial_2406_3230)"/>
<path d="M22.1713 13.5197C22.1713 17.8092 18.6937 21.2865 14.4038 21.2865C10.1139 21.2865 6.63623 17.8092 6.63623 13.5197C6.63623 9.23023 10.1139 5.75293 14.4038 5.75293C18.6937 5.75293 22.1713 9.23023 22.1713 13.5197Z" fill="url(#paint10_radial_2406_3230)"/>
</g>
</g>
<defs>
<linearGradient id="paint0_linear_2406_3230" x1="14.4038" y1="7.53281" x2="17.9633" y2="19.1832" gradientUnits="userSpaceOnUse">
<stop stop-color="#A893E8"/>
<stop offset="1" stop-color="#9EA1DC"/>
</linearGradient>
<radialGradient id="paint1_radial_2406_3230" cx="0" cy="0" r="1" gradientUnits="userSpaceOnUse" gradientTransform="translate(20.2294 20.3156) rotate(-130.858) scale(7.9157 7.58767)">
<stop stop-color="#606EF5"/>
<stop offset="1" stop-color="#909ADD" stop-opacity="0"/>
</radialGradient>
<radialGradient id="paint2_radial_2406_3230" cx="0" cy="0" r="1" gradientUnits="userSpaceOnUse" gradientTransform="translate(18.2876 5.75293) rotate(116.567) scale(8.68369 8.32421)">
<stop stop-color="#8874FF"/>
<stop offset="1" stop-color="#8874FF" stop-opacity="0"/>
</radialGradient>
<radialGradient id="paint3_radial_2406_3230" cx="0" cy="0" r="1" gradientUnits="userSpaceOnUse" gradientTransform="translate(4.69434 5.1057) rotate(36.6043) scale(14.1107 11.4414)">
<stop stop-color="white" stop-opacity="0.79"/>
<stop offset="1" stop-color="white" stop-opacity="0"/>
</radialGradient>
<radialGradient id="paint4_radial_2406_3230" cx="0" cy="0" r="1" gradientUnits="userSpaceOnUse" gradientTransform="translate(7.93082 7.04739) rotate(44.9971) scale(5.72105 4.15519)">
<stop stop-color="white" stop-opacity="0.49"/>
<stop offset="1" stop-color="white" stop-opacity="0"/>
</radialGradient>
<radialGradient id="paint5_radial_2406_3230" cx="0" cy="0" r="1" gradientUnits="userSpaceOnUse" gradientTransform="translate(17.4049 13.5197) rotate(49.8962) scale(4.38479 3.61797)">
<stop stop-color="white" stop-opacity="0.15"/>
<stop offset="1" stop-color="white" stop-opacity="0"/>
</radialGradient>
<linearGradient id="paint6_linear_2406_3230" x1="14.4038" y1="7.53281" x2="17.9633" y2="19.1832" gradientUnits="userSpaceOnUse">
<stop stop-color="#A893E8"/>
<stop offset="1" stop-color="#9EA1DC"/>
</linearGradient>
<radialGradient id="paint7_radial_2406_3230" cx="0" cy="0" r="1" gradientUnits="userSpaceOnUse" gradientTransform="translate(20.2294 20.3156) rotate(-130.858) scale(7.9157 7.58767)">
<stop stop-color="#606EF5"/>
<stop offset="1" stop-color="#909ADD" stop-opacity="0"/>
</radialGradient>
<radialGradient id="paint8_radial_2406_3230" cx="0" cy="0" r="1" gradientUnits="userSpaceOnUse" gradientTransform="translate(18.2876 5.75293) rotate(116.191) scale(10.1225 9.70351)">
<stop stop-color="#8874FF"/>
<stop offset="1" stop-color="#8874FF" stop-opacity="0"/>
</radialGradient>
<radialGradient id="paint9_radial_2406_3230" cx="0" cy="0" r="1" gradientUnits="userSpaceOnUse" gradientTransform="translate(4.69434 5.1057) rotate(39.6919) scale(14.4193 11.6918)">
<stop stop-color="white" stop-opacity="0.79"/>
<stop offset="1" stop-color="white" stop-opacity="0"/>
</radialGradient>
<radialGradient id="paint10_radial_2406_3230" cx="0" cy="0" r="1" gradientUnits="userSpaceOnUse" gradientTransform="translate(7.93082 7.04739) rotate(43.5085) scale(8.19956 5.95529)">
<stop stop-color="white" stop-opacity="0.49"/>
<stop offset="1" stop-color="white" stop-opacity="0"/>
</radialGradient>
</defs>
</svg>
