<svg width="45" height="37" viewBox="0 0 45 37" fill="none" xmlns="http://www.w3.org/2000/svg">
<path d="M9.93212 3.56841C10.4141 3.4127 10.9617 3.34561 11.6729 3.29906C10.8328 3.15639 9.9741 3.13053 9.12773 3.22952C8.57863 3.29373 8.05995 3.40173 7.35896 3.6374C6.89568 3.83476 6.53241 3.98419 6.17462 4.17536C5.32928 4.62704 4.61949 5.32164 4.14823 6.15623C3.96094 6.48792 3.81028 6.83378 3.63716 7.27462C3.36959 7.9825 3.38629 8.44968 3.46798 9.30469C3.57291 9.7814 3.70472 10.1487 3.88169 10.475C4.44153 11.5071 5.45282 12.2722 6.58321 12.59C6.69713 12.622 6.81395 12.6509 6.93531 12.6775C7.65997 12.8365 8.41339 12.872 9.14502 12.749C9.28116 12.7261 9.40934 12.6992 9.53427 12.6672C10.1313 12.5142 10.6882 12.1964 11.0925 11.7313C11.1887 11.6206 11.277 11.5031 11.3634 11.3709C11.5909 11.0232 11.7385 10.6135 11.7831 10.2003C11.8772 9.32722 11.3876 8.50621 10.6965 7.96438C10.3118 7.66276 9.89228 7.40812 9.30445 7.10545C8.80993 6.80634 8.45551 6.54485 8.23708 6.28086C7.44514 5.32372 8.75001 3.95035 9.93212 3.56841Z" fill="#C0D5F5"/>
<path d="M16.9172 5.32876C16.4607 4.10767 15.9705 3.94955 15.0563 3.04492H17.2556L17.8319 3.09295C18.7993 3.17356 19.7579 3.3373 20.6972 3.58234L21.2311 3.72161L22.2803 4.08883C22.7078 4.23844 23.1207 4.42677 23.5139 4.65147C23.9085 4.87696 24.2817 5.13812 24.6286 5.43169L24.8608 5.62817C25.091 5.82296 25.3046 6.03657 25.4994 6.26677L25.5924 6.37671C25.9526 6.80242 26.2332 7.28951 26.4208 7.81467C26.5135 8.07417 26.5829 8.34141 26.6282 8.61322L26.6478 8.73114C26.702 9.05631 26.7293 9.38541 26.7293 9.71507V10.7423C27.2062 10.6665 27.4851 10.6514 27.9981 10.6577H30.2819L31.9736 10.7423C32.6624 10.7846 33.0254 10.855 33.6654 10.996C34.1434 11.1033 34.4259 11.2112 34.9342 11.419C35.5699 11.7075 35.8832 11.8784 36.4567 12.1803L36.6942 12.3254C37.5441 12.8448 38.2944 13.5117 38.9097 14.2949C39.2286 14.7115 39.4148 15.0098 39.7556 15.6483C40.2036 16.5444 40.4998 17.5085 40.6323 18.5015L40.7706 19.5393L40.6014 19.0318L40.0093 17.5092L39.8801 17.1537C39.7411 16.7715 39.5609 16.4057 39.3426 16.0626C39.1671 15.787 38.9678 15.5272 38.747 15.2863L38.5966 15.1222C38.2983 14.7968 37.974 14.4962 37.6269 14.2235L37.4975 14.1218C37.1429 13.8432 36.761 13.6012 36.3576 13.3995C35.9734 13.2074 35.5716 13.0528 35.1578 12.9379L34.9503 12.8802C34.4892 12.7521 34.0189 12.6543 33.5414 12.6215C32.8909 12.5767 32.3765 12.5955 31.6353 12.6878C31.4114 12.7174 31.2394 12.7488 31.0679 12.7901C30.7101 12.8763 30.3729 13.0303 30.0498 13.2065L30.0036 13.2318C29.7385 13.3763 29.2597 13.7275 29.0311 13.9247C28.6259 14.2745 28.4635 14.4748 28.1493 14.9082C28.038 15.0619 27.9477 15.2081 27.8289 15.3945C27.4276 16.0344 27.2587 16.7856 27.1006 17.5242L27.0676 17.6784C26.9435 18.3985 26.9264 18.8082 26.8984 19.5393V26.56L26.9821 27.5217C27.0387 28.1729 27.2046 28.8099 27.4728 29.4059C27.7089 29.9305 28.0214 30.4172 28.4003 30.8502L28.598 31.0761C28.874 31.3916 29.1821 31.6773 29.5174 31.9288L29.6011 31.9916C29.885 32.2045 30.1906 32.3868 30.5128 32.5355L30.5495 32.5525C30.9333 32.7296 31.3391 32.8546 31.756 32.9241C32.0134 32.967 32.2739 32.9885 32.5349 32.9885H33.4962L34.2024 32.9381C34.5203 32.9154 34.8352 32.8617 35.1427 32.7779C35.454 32.693 35.7562 32.5775 36.0449 32.4332L36.4567 32.2273C37.0758 31.8896 37.6641 31.4982 38.2148 31.0576L38.233 31.043C39.1796 30.0808 39.6386 29.346 40.3477 27.7442L40.8552 26.2216C40.7992 27.2289 40.5673 28.2185 40.1699 29.1458L39.9347 29.6947C39.6474 30.3651 39.2729 30.9947 38.8209 31.5672C38.4303 32.062 37.9845 32.5107 37.4921 32.9045L36.5413 33.6652C35.6489 34.223 34.6497 34.588 33.608 34.7368L32.529 34.8909C31.9339 34.9759 31.3336 35.0186 30.7324 35.0186H30.5357H28.2518L27.678 34.9776C26.4869 34.8925 25.3123 34.6496 24.1852 34.2551L23.3822 33.974C22.7966 33.7691 22.2405 33.4877 21.7285 33.1374C21.1742 32.7581 20.6769 32.3017 20.2516 31.7819L20.1315 31.6351L19.2857 30.4509C18.8353 29.719 18.4446 28.9521 18.1174 28.1574L18.0169 27.9133L17.5093 26.2216C18.1278 25.8843 18.7079 25.4809 19.2396 25.0186L20.3853 24.0224C21.0231 23.438 21.3639 23.0934 21.9078 22.4152C22.4533 21.8085 22.7364 21.4441 23.1766 20.7235L23.3245 20.4721C23.7891 19.6824 24.1887 18.8562 24.5195 18.0017L25.0375 16.6633L23.7687 18.6088L23.1338 19.5052C22.5993 20.2597 22.011 20.9767 21.3431 21.6161C20.8775 22.062 20.4527 22.4404 19.8778 22.9227L19.1275 23.4587C18.4444 23.9466 17.726 24.383 16.9781 24.7642L15.0942 25.7246C14.2247 26.1679 13.3185 26.5351 12.3857 26.8221L11.6611 27.0451C11.6125 27.06 11.5647 27.0745 11.516 27.0886C11.228 27.1719 10.1415 27.4779 9.38904 27.575C9.06317 27.6171 8.65573 27.6386 8.29803 27.6494C7.73027 27.6667 7.16467 27.5932 6.61209 27.4616L6.44181 27.4211C5.9275 27.2986 5.43078 27.1115 4.96353 26.8641C4.47616 26.6061 4.02503 26.2848 3.62188 25.9085L3.35257 25.6571C3.09205 25.414 2.86062 25.1414 2.66295 24.8449L2.60734 24.7615C2.28255 24.2743 2.06482 23.7237 1.96856 23.1461C1.89719 22.7179 1.89364 22.2811 1.95804 21.8518L1.97007 21.7716C2.06539 21.1362 2.29136 20.5273 2.63374 19.9836L2.92864 19.5152C3.34195 18.8588 3.85733 18.2725 4.45537 17.7785L4.71153 17.5668C5.23433 17.135 5.80252 16.7612 6.40608 16.452L8.9661 15.1408L11.6729 13.872L14.0413 12.9415C14.7723 12.6042 15.5373 12.3459 16.3232 12.1713L16.6635 12.0957L16.3849 12.2748C15.7829 12.6618 15.224 13.1122 14.718 13.6182L14.4089 13.9582C14.0518 14.3511 13.7306 14.7752 13.4492 15.2254L13.0263 15.9867L12.6033 16.9171L12.3496 17.6784L12.1804 18.4397L12.0958 19.2855V20.3851V20.7913C12.0958 21.365 12.1525 21.9373 12.265 22.4998L12.2965 22.626C12.388 22.9919 12.5192 23.3467 12.6879 23.684L12.7578 23.7888C12.9359 24.056 13.1499 24.2975 13.3938 24.5066C13.5432 24.6347 13.7032 24.75 13.872 24.8512L13.9322 24.8874C14.0044 24.9307 14.0835 24.9613 14.166 24.9778L14.3104 25.0066C14.4127 25.0271 14.5168 25.0374 14.6211 25.0374H14.7915C15.2476 24.9823 15.684 24.8402 16.0866 24.6188L17.171 24.0224V7.95094C17.1185 7.07889 17.114 6.17692 16.9172 5.32876Z" fill="white"/>
</svg>
