<svg width="84" height="32" viewBox="0 0 84 32" fill="none" xmlns="http://www.w3.org/2000/svg">
    <path d="M9.69464 9.72561L11.8881 9.70851C14.1073 9.6914 16.1628 10.848 17.2876 12.7443C17.8585 13.7063 18.1451 14.7881 18.1451 15.8655C18.1451 16.943 17.8758 17.9606 17.3371 18.9034C16.2447 20.8147 14.2043 22.0076 11.9893 22.0247L9.8864 22.0418H4.99754L4.64418 25.2379L5.63963 26.9076L8.10667 26.8862L12.0281 26.8541C15.984 26.8221 19.6232 24.6949 21.5731 21.2829C23.5231 17.8687 23.4864 13.6785 21.4805 10.2964C20.4872 8.6182 19.0802 7.26066 17.4319 6.32855C16.6886 5.90312 15.8914 5.56748 15.064 5.3259C14.0621 5.03301 13.0106 4.87695 11.9398 4.87695H11.8471L5.45648 4.9304L4.30591 7.95333L5.87663 9.72775H8.30059L8.30705 9.73844L9.67524 9.72775H9.69464V9.72561Z" fill="url(#paint0_linear_2406_4247)"/>
    <path d="M9.10602 11.089C10.8577 14.0436 10.8879 17.7036 9.18574 20.6859L8.40577 22.052L5.63706 26.9049H5.63276L2.78218 22.0969H2.78648L5.55519 17.2482C6.02705 16.4209 6.01843 15.4075 5.53149 14.5887L2.68522 9.78067H2.68091L5.45392 4.92773L8.3045 9.73577L9.10602 11.089Z" fill="url(#paint1_linear_2406_4247)"/>
    <path d="M23.5553 10.021H32.385L23.1309 26.3136V26.4483H40.7234V21.6467H31.7235L40.8268 5.40324V5.26855H23.5553V10.021ZM49.6932 5.27069L41.5422 26.4505H47.0796L48.5727 22.3394H48.5964L50.2749 17.79L52.464 11.8254L54.6553 17.79L57.8635 26.4505H63.5367L55.3857 5.27069H49.6953H49.6932ZM79.4249 7.18835C78.0158 5.90991 76.1348 5.27069 73.7798 5.27069H64.4222V26.4505H69.9596V19.8616H73.7819C76.1348 19.8616 78.0179 19.2245 79.4271 17.9525C80.8384 16.6762 81.5429 14.8868 81.5429 12.5864C81.5429 10.2861 80.8384 8.4732 79.4271 7.19263L79.4249 7.18835ZM73.1851 15.2288H69.9596V9.92054H73.1851C75.1329 9.92054 76.1068 10.8056 76.1068 12.5822C76.1068 14.3587 75.1329 15.2267 73.1851 15.2267V15.2288Z" fill="#41907B"/>
    <defs>
        <linearGradient id="paint0_linear_2406_4247" x1="18.4769" y1="25.7318" x2="6.95077" y2="8.69469" gradientUnits="userSpaceOnUse">
            <stop stop-color="#002A25"/>
            <stop offset="1" stop-color="#82F4CF"/>
        </linearGradient>
        <linearGradient id="paint1_linear_2406_4247" x1="5.9581" y1="6.88815" x2="6.97845" y2="25.8967" gradientUnits="userSpaceOnUse">
            <stop stop-color="#002A25"/>
            <stop offset="1" stop-color="#82F4CF"/>
        </linearGradient>
    </defs>
</svg>
