<svg xmlns="http://www.w3.org/2000/svg" width="50" height="50" fill="none">
    <rect width="50" height="50" fill="#fff" rx="4" />
    <g clip-path="url(#a)">
        <path fill="url(#b)"
            d="M25.009 7.273c-7.402 0-9.567.007-9.988.042-1.52.127-2.464.366-3.494.878-.794.395-1.42.851-2.037 1.492-1.125 1.168-1.807 2.604-2.054 4.312-.12.83-.155.998-.162 5.233-.003 1.412 0 3.27 0 5.762 0 7.396.008 9.559.044 9.979.122 1.478.354 2.408.845 3.425a7.469 7.469 0 0 0 4.84 3.955c.732.188 1.539.291 2.575.34.44.02 4.915.033 9.393.033 4.478 0 8.956-.005 9.384-.027 1.2-.056 1.897-.15 2.667-.35a7.423 7.423 0 0 0 4.841-3.962c.481-.992.726-1.958.836-3.359.024-.305.034-5.176.034-10.04 0-4.863-.01-9.725-.035-10.03-.112-1.424-.356-2.38-.853-3.393a7.027 7.027 0 0 0-1.517-2.079c-1.173-1.12-2.608-1.802-4.317-2.049-.829-.12-.994-.155-5.232-.162h-5.77Z" />
        <path fill="url(#c)"
            d="M25.009 7.273c-7.402 0-9.567.007-9.988.042-1.52.127-2.464.366-3.494.878-.794.395-1.42.851-2.037 1.492-1.125 1.168-1.807 2.604-2.054 4.312-.12.83-.155.998-.162 5.233-.003 1.412 0 3.27 0 5.762 0 7.396.008 9.559.044 9.979.122 1.478.354 2.408.845 3.425a7.469 7.469 0 0 0 4.84 3.955c.732.188 1.539.291 2.575.34.44.02 4.915.033 9.393.033 4.478 0 8.956-.005 9.384-.027 1.2-.056 1.897-.15 2.667-.35a7.423 7.423 0 0 0 4.841-3.962c.481-.992.726-1.958.836-3.359.024-.305.034-5.176.034-10.04 0-4.863-.01-9.725-.035-10.03-.112-1.424-.356-2.38-.853-3.393a7.027 7.027 0 0 0-1.517-2.079c-1.173-1.12-2.608-1.802-4.317-2.049-.829-.12-.994-.155-5.232-.162h-5.77Z" />
        <path fill="#fff"
            d="M25 11.91c-3.555 0-4 .015-5.397.078-1.394.064-2.345.285-3.177.608a6.409 6.409 0 0 0-2.32 1.51 6.426 6.426 0 0 0-1.51 2.319c-.325.832-.546 1.784-.608 3.177-.063 1.396-.08 1.843-.08 5.398 0 3.555.017 4 .08 5.396.064 1.394.285 2.345.608 3.178a6.414 6.414 0 0 0 1.51 2.319 6.408 6.408 0 0 0 2.318 1.51c.833.324 1.785.545 3.178.609 1.396.063 1.842.079 5.397.079s4-.016 5.396-.08c1.394-.063 2.346-.284 3.18-.607a6.404 6.404 0 0 0 2.317-1.511 6.426 6.426 0 0 0 1.51-2.319c.322-.833.543-1.784.609-3.177.062-1.397.079-1.842.079-5.397s-.017-4.002-.08-5.398c-.065-1.393-.286-2.345-.608-3.177a6.425 6.425 0 0 0-1.51-2.32 6.398 6.398 0 0 0-2.319-1.509c-.834-.323-1.786-.544-3.18-.608-1.396-.063-1.84-.079-5.397-.079h.005Zm-1.174 2.358H25c3.496 0 3.91.013 5.29.075 1.277.059 1.97.272 2.43.451.612.237 1.047.521 1.505.98.458.458.742.894.98 1.505.179.46.392 1.154.45 2.43.063 1.38.077 1.794.077 5.288s-.014 3.908-.077 5.288c-.058 1.276-.271 1.97-.45 2.43a4.048 4.048 0 0 1-.98 1.504 4.05 4.05 0 0 1-1.504.98c-.461.18-1.154.392-2.43.45-1.38.063-1.795.076-5.29.076-3.496 0-3.91-.013-5.29-.076-1.276-.059-1.97-.272-2.43-.451a4.055 4.055 0 0 1-1.506-.98 4.058 4.058 0 0 1-.98-1.504c-.18-.46-.393-1.153-.45-2.43-.063-1.38-.076-1.794-.076-5.29s.013-3.909.075-5.288c.059-1.277.272-1.97.451-2.431.237-.61.522-1.047.98-1.505a4.063 4.063 0 0 1 1.505-.98c.462-.18 1.155-.393 2.43-.451 1.209-.055 1.677-.071 4.116-.074v.003Zm8.162 2.174a1.57 1.57 0 1 0 0 3.142 1.57 1.57 0 0 0 0-3.143ZM25 18.277a6.723 6.723 0 1 0 .001 13.446 6.723 6.723 0 0 0 0-13.446Zm0 2.36a4.364 4.364 0 1 1 0 8.726 4.364 4.364 0 0 1 0-8.727Z" />
    </g>
    <defs>
        <radialGradient id="b" cx="0" cy="0" r="1"
            gradientTransform="matrix(0 -35.1351 32.6863 0 16.692 45.455)"
            gradientUnits="userSpaceOnUse">
            <stop stop-color="#FD5" />
            <stop offset=".1" stop-color="#FD5" />
            <stop offset=".5" stop-color="#FF543E" />
            <stop offset="1" stop-color="#C837AB" />
        </radialGradient>
        <radialGradient id="c" cx="0" cy="0" r="1"
            gradientTransform="rotate(78.678 -5.328 5.727) scale(15.7057 64.754)"
            gradientUnits="userSpaceOnUse">
            <stop stop-color="#3771C8" />
            <stop offset=".128" stop-color="#3771C8" />
            <stop offset="1" stop-color="#60F" stop-opacity="0" />
        </radialGradient>
        <clipPath id="a">
            <path fill="#fff" d="M7 7h36v36H7z" />
        </clipPath>
    </defs>
</svg>