<svg width="69" height="32" viewBox="0 0 69 32" fill="none" xmlns="http://www.w3.org/2000/svg">
<path d="M6.69336 1.68066H3.0918C2.53951 1.68066 2.0918 2.12838 2.0918 2.68066V28.4084C2.0918 28.9607 2.53951 29.4084 3.0918 29.4084H6.69336C7.24565 29.4084 7.69336 28.9607 7.69336 28.4084V17.7852L9.38148 28.5631C9.45769 29.0498 9.87689 29.4084 10.3694 29.4084H13.7976C14.4146 29.4084 14.8844 28.8551 14.7843 28.2462L13.2949 19.1856C12.6476 17.0777 11.8821 16.3153 9.93399 15.5445C11.8858 14.6034 12.8201 13.9009 13.2949 11.3434L14.7717 2.85201C14.878 2.24039 14.4073 1.68066 13.7865 1.68066H10.3694C9.87689 1.68066 9.4577 2.03931 9.38148 2.52592L7.69336 13.3039V2.68066C7.69336 2.12838 7.24565 1.68066 6.69336 1.68066Z" fill="#249A7A"/>
<path d="M21.8148 1.68066H18.7734C18.2212 1.68066 17.7734 2.12838 17.7734 2.68066V29.4084H35.5387C36.091 29.4084 36.5387 28.9607 36.5387 28.4084V25.882C36.5387 25.3297 36.091 24.882 35.5387 24.882H22.8148V2.68066C22.8148 2.12838 22.3671 1.68066 21.8148 1.68066Z" fill="#249A7A"/>
<path fill-rule="evenodd" clip-rule="evenodd" d="M27.9916 1.67285C25.9268 1.67285 24.2529 3.34673 24.2529 5.41157V20.0564C24.2529 22.1213 25.9268 23.7952 27.9916 23.7952H31.9974C34.0623 23.7952 35.7361 22.1213 35.7361 20.0564V5.41157C35.7361 3.34673 34.0623 1.67285 31.9974 1.67285H27.9916ZM29.9939 5.7486C29.2978 5.7486 28.7335 6.31288 28.7335 7.00895V18.9515C28.7335 19.6476 29.2978 20.2118 29.9939 20.2118C30.6899 20.2118 31.2542 19.6476 31.2542 18.9515V7.00895C31.2542 6.31287 30.6899 5.7486 29.9939 5.7486Z" fill="#249A7A"/>
<path d="M43.21 1.81934H40.3086C39.7563 1.81934 39.3086 2.26705 39.3086 2.81933V25.3459C39.3086 27.5115 41.0641 29.267 43.2297 29.267H47.851C50.0165 29.267 51.7721 27.5115 51.7721 25.3459V2.81934C51.7721 2.26705 51.3244 1.81934 50.7721 1.81934H47.8707C47.3184 1.81934 46.8707 2.26705 46.8707 2.81934V24.1556C46.8707 24.8903 46.2751 25.4859 45.5403 25.4859C44.8056 25.4859 44.21 24.8903 44.21 24.1556V2.81934C44.21 2.26705 43.7622 1.81934 43.21 1.81934Z" fill="#249A7A"/>
<path d="M54.3635 4.88184V2.68066C54.3635 2.12838 54.8112 1.68066 55.3635 1.68066H66.5272C67.0795 1.68066 67.5272 2.12838 67.5272 2.68066V4.88184C67.5272 5.43412 67.0795 5.88184 66.5272 5.88184H63.326V29.2684H58.4247V5.88184H55.3635C54.8112 5.88184 54.3635 5.43412 54.3635 4.88184Z" fill="#249A7A"/>
</svg>
