<svg width="50" height="50" viewBox="0 0 50 50" fill="none" xmlns="http://www.w3.org/2000/svg">
<rect width="50" height="50" rx="4" fill="white"/>
<path d="M16.9252 16C22.9591 16 27.85 20.9251 27.85 27.0002C27.85 33.0752 22.9587 38 16.9252 38C10.8917 38 6 33.0752 6 27.0002C6 20.9251 10.8914 16 16.9252 16ZM34.372 16.6444C37.3889 16.6444 39.8346 21.2804 39.8346 27.0002H39.835C39.835 32.7185 37.3893 37.356 34.3724 37.356C31.3554 37.356 28.9098 32.7185 28.9098 27.0002C28.9098 21.2818 31.3551 16.6444 34.372 16.6444ZM42.8159 17.723C43.8767 17.723 44.7371 21.8765 44.7371 27.0002C44.7371 32.1224 43.8771 36.2774 42.8159 36.2774C41.7547 36.2774 40.895 32.1235 40.895 27.0002C40.895 21.8768 41.7551 17.723 42.8159 17.723Z" fill="black"/>
</svg>
